Coordinates
version=1
nRows=5
nColumns=40
inDegrees=yes

Units are S.I. units (second, meters, Newtons, ...)
If the header above contains a line with 'inDegrees', this indicates whether rotational values are in degrees (yes) or radians (no).

endheader
time	pelvis_tilt	pelvis_list	pelvis_rotation	pelvis_tx	pelvis_ty	pelvis_tz	hip_flexion_r	hip_adduction_r	hip_rotation_r	knee_angle_r	knee_angle_r_beta	ankle_angle_r	subtalar_angle_r	mtp_angle_r	hip_flexion_l	hip_adduction_l	hip_rotation_l	knee_angle_l	knee_angle_l_beta	ankle_angle_l	subtalar_angle_l	mtp_angle_l	lumbar_extension	lumbar_bending	lumbar_rotation	arm_flex_r	arm_add_r	arm_rot_r	elbow_flex_r	pro_sup_r	wrist_flex_r	wrist_dev_r	arm_flex_l	arm_add_l	arm_rot_l	elbow_flex_l	pro_sup_l	wrist_flex_l	wrist_dev_l
      0.00000000	     16.05886353	      4.03140930	      3.05072959	      0.02384453	      0.96147772	     -0.33550750	      9.95401810	     -6.10055352	     -8.61826147	     17.71565938	      0.30919659	    -11.82672784	      0.00000000	      0.00000000	    -29.41230948	      6.86856549	      5.19988023	      6.17799186	      0.10782630	     -3.44763931	      0.00000000	      0.00000000	    -31.21969876	     -2.49567901	    -10.96480031	     -2.78097586	    -14.51509577	      4.06867398	     42.03710350	     75.85844892	      0.00000000	      0.00000000	     12.58548201	    -28.54260694	     26.81444147	     57.50004496	     73.31073899	      0.00000000	      0.00000000
      0.00400000	     15.80586623	      4.10778103	      2.94745680	      0.02866893	      0.95991822	     -0.33522036	     10.54729695	     -6.04231596	     -8.66825173	     16.87213731	      0.29447435	    -12.02753372	      0.00000000	      0.00000000	    -29.41901273	      6.97651035	      5.14191481	      6.32288024	      0.11035508	     -3.14850988	      0.00000000	      0.00000000	    -31.04654038	     -2.61667750	    -10.94383715	     -2.70139883	    -14.45196155	      4.06801086	     42.01722001	     75.90807844	      0.00000000	      0.00000000	     12.77240767	    -28.59076040	     26.79226267	     57.60679408	     73.33718720	      0.00000000	      0.00000000
      0.00800000	     15.57093375	      4.23105815	      2.85567770	      0.03368172	      0.95832816	     -0.33516101	     11.15420254	     -6.10054065	     -8.99108666	     16.23291135	      0.28331775	    -11.94793677	      0.00000000	      0.00000000	    -29.44500832	      7.13666495	      5.00487645	      6.47371104	      0.11298757	     -3.02323876	      0.00000000	      0.00000000	    -30.87104015	     -2.75609289	    -10.92594443	     -2.62972684	    -14.44933683	      4.07639319	     41.95531447	     75.90281414	      0.00000000	      0.00000000	     12.93892846	    -28.61818518	     26.81098894	     57.74015284	     73.35488522	      0.00000000	      0.00000000
      0.01200000	     15.32657784	      4.32884853	      2.82261268	      0.03873046	      0.95676079	     -0.33475346	     11.77591170	     -6.10585160	     -9.20501243	     15.63749458	      0.27292577	    -11.95207051	      0.00000000	      0.00000000	    -29.44903574	      7.22057615	      4.90304588	      6.63975948	      0.11588566	     -2.86203922	      0.00000000	      0.00000000	    -30.68231810	     -2.88427669	    -10.97999912	     -2.55014581	    -14.35108713	      4.06672523	     41.93723805	     75.89825061	      0.00000000	      0.00000000	     13.10028494	    -28.69691939	     26.81864367	     57.82392937	     73.36918717	      0.00000000	      0.00000000
      0.01600000	     15.29657459	      4.31953275	      2.97270834	      0.04355686	      0.95570737	     -0.33433433	     11.66825987	     -5.85976411	     -8.95083209	     14.02383811	      0.24476215	    -12.78500239	      0.00000000	      0.00000000	    -29.44992656	      7.08123853	      4.89655460	      7.29667360	      0.12735098	     -2.21519522	      0.00000000	      0.00000000	    -30.74235704	     -2.83247036	    -11.13620547	     -2.30327615	    -14.17062460	      3.94198072	     41.57376326	     75.90523687	      0.00000000	      0.00000000	     13.34799547	    -28.84462061	     26.97373458	     57.87197214	     73.46447555	      0.00000000	      0.00000000
